<svg width="211" height="80" viewBox="0 0 211 80" fill="none" xmlns="http://www.w3.org/2000/svg">
<g clip-path="url(#clip0_29633_968)">
<path d="M173.069 60.0166L154.191 69.9916V70.0249L173.069 79.9944L191.948 70.0249V69.9861L191.942 69.9916L173.069 60.0166Z" fill="#296EAA"/>
<path d="M191.942 9.99167L191.948 9.99722V9.96945L173.069 0L154.191 9.96945V9.99167L173.069 19.9611L191.942 9.99167Z" fill="#A4B7D8"/>
<path d="M191.947 9.99731V29.9973L210.82 39.9668V19.9612L191.947 9.99731Z" fill="#8CA6CE"/>
<path d="M154.191 9.9917L135.318 19.9612V39.9667L154.191 29.9917V9.9917Z" fill="#7596C4"/>
<path d="M191.947 69.9861L210.82 60.0167V40.0222L191.947 49.9917V69.9861Z" fill="#7596C4"/>
<path d="M191.946 30.0306L173.068 40.0001L191.946 49.9695V49.9918L210.819 40.0223V39.9668L191.946 29.9973V30.0306Z" fill="#467AB2"/>
<path d="M173.068 40V40.0222V60.0167L191.941 69.9917L191.946 69.9861V49.9917V49.9695L173.068 40Z" fill="#0063A2"/>
<path d="M191.941 9.9917L173.068 19.9612V39.9667V40L191.946 30.0306V29.9973V9.99725L191.941 9.9917Z" fill="#5F87BB"/>
<path d="M135.318 40.0222V60.0167L154.191 69.9917V49.9917L135.318 40.0222Z" fill="#467AB2"/>
<path d="M154.191 49.9695L173.069 40L154.191 30.0306V29.9917L135.318 39.9667V40.0222L154.191 49.9917V49.9695Z" fill="#0063A2"/>
<path d="M154.191 49.9695V49.9917V69.9917L173.069 60.0167V40.0222V40L154.191 49.9695Z" fill="#005A9B"/>
<path d="M154.191 9.9917V29.9917V30.0306L173.069 40V39.9667V19.9612L154.191 9.9917Z" fill="#296EAA"/>
<path d="M5.12635 38.6225V41.6106H5.25965C6.33157 39.9166 8.73646 38.0005 12.6576 38.0005C18.767 38.0005 23.0436 42.9047 23.0436 49.2363C23.0436 55.5678 19.028 60.6442 12.5243 60.6442C9.53624 60.6442 6.82033 59.3057 5.43738 57.1674H5.34851V70.7192H0V38.6281H5.12635V38.6225ZM11.4579 42.3659C7.53679 42.3659 5.17079 45.9761 5.17079 49.314C5.17079 52.652 7.53124 56.1843 11.4579 56.1843C15.6012 56.1843 17.6062 52.5742 17.6062 49.2307C17.6062 45.8872 15.6012 42.3659 11.4579 42.3659Z" fill="black"/>
<path d="M38.833 57.2953H38.6997C37.6278 59.167 35.0896 60.55 32.0571 60.55C28.6303 60.55 24.0371 58.9004 24.0371 53.9074C24.0371 47.5369 32.0571 46.6483 38.7441 46.6483V46.1095C38.7441 43.4825 36.517 42.1884 33.8455 42.1884C31.5684 42.1884 29.3856 43.2548 28.0027 44.6377L25.2368 41.3831C27.6417 39.1559 31.0296 37.9951 34.2843 37.9951C41.9544 37.9951 43.8261 42.7216 43.8261 46.9982V60.0112H38.833V57.2953ZM38.7441 50.2528H37.5445C34.1565 50.2528 29.3856 50.6527 29.3856 53.8185C29.3856 55.8679 31.3073 56.4955 33.129 56.4955C36.7836 56.4955 38.7441 54.4017 38.7441 51.0082V50.2528Z" fill="black"/>
<path d="M43.0879 38.6226H49.014L54.9901 54.1738H55.0846L60.3886 38.6226H65.9593L55.8399 64.6098C54.3237 68.4865 52.452 70.7192 47.7255 70.7192C46.8368 70.7192 45.8982 70.6303 44.9651 70.4082L45.4095 65.7706C46.1204 65.9983 46.8368 66.0816 47.4089 66.0816C49.6861 66.0816 50.3081 64.9708 51.1967 62.7381L52.2687 60.0166L43.0879 38.6226Z" fill="black"/>
<path d="M67.3415 42.8993H63.2871V38.6227H67.3415V35.4569C67.3415 30.3361 69.3465 25.7874 75.9891 25.7874C77.1444 25.7874 77.9053 25.8762 78.7051 26.0984L78.3496 30.6471C77.7664 30.4694 77.0555 30.3361 76.3002 30.3361C73.2232 30.3361 72.6901 33.0076 72.6901 35.1459V38.6227H77.6387V42.8993H72.6901V60.0112H67.3415V42.8993ZM80.449 26.3205H85.7975V60.0167H80.449V26.3205Z" fill="black"/>
<path d="M195.523 42.8993H191.469V38.6227H195.523V35.4569C195.523 30.3361 197.528 25.7874 204.171 25.7874C205.326 25.7874 206.087 25.8762 206.887 26.0984L206.531 30.6471C205.948 30.4694 205.237 30.3361 204.482 30.3361C201.405 30.3361 200.872 33.0076 200.872 35.1459V38.6227H205.82V42.8993H200.872V60.0112H195.523V42.8993Z" fill="white"/>
<path d="M95.5401 55.3901C96.501 55.9511 97.6284 56.2676 98.8059 56.2676C101.483 56.2676 103.26 55.2013 104.465 53.5073L108.031 56.3621C105.937 59.2168 102.905 60.6442 98.8503 60.6442C92.2522 60.6442 87.3535 56.4065 87.3535 49.4529C87.3535 42.4992 92.2133 38.0005 98.6781 38.0005C104.654 38.0005 109.02 41.8827 109.02 49.5917C109.02 50.0805 109.02 50.5303 108.975 51.0191H92.7076C92.8464 52.9075 93.9683 54.4792 95.5512 55.4012M103.677 47.1868C103.677 44.4265 102.116 42.0105 98.6393 42.0105C95.4735 42.0105 92.9353 44.1988 92.7076 47.1868H103.671H103.677Z" fill="black"/>
<path d="M115.407 48.6531L107.698 38.6226H114.113L118.75 45.2652L123.521 38.6226H129.675L122.005 48.6531L130.742 60.0166H124.232L118.662 52.2188L113.046 60.0166H106.715L115.407 48.6531Z" fill="black"/>
<path d="M68.7855 65.0931C68.2023 65.0931 67.6191 64.6099 67.6191 63.9268C67.6191 63.2436 68.2023 62.7549 68.7855 62.7549C69.3687 62.7549 69.9574 63.2436 69.9574 63.9268C69.9574 64.6099 69.3687 65.0931 68.7855 65.0931ZM69.613 79.7057H67.9579V68.3089H69.613V79.7057Z" fill="black"/>
<path d="M74.0516 68.3088C74.1016 68.9142 74.1516 69.7695 74.1516 70.2582H74.2016C74.8348 68.9419 76.4899 68.0144 78.1005 68.0144C80.9942 68.0144 82.4326 69.8917 82.4326 72.7186V79.7056H80.7776V73.3962C80.7776 71.0136 80.0722 69.4085 77.684 69.4085C75.9289 69.4085 74.2238 70.8192 74.2238 73.8628V79.7056H72.5687V70.8192C72.5687 70.2082 72.5465 69.0863 72.4688 68.3143H74.0516V68.3088Z" fill="black"/>
<path d="M86.7427 68.3088C86.7927 68.9142 86.8427 69.7695 86.8427 70.2582H86.8927C87.5259 68.9419 89.181 68.0144 90.7861 68.0144C93.6853 68.0144 95.1182 69.8917 95.1182 72.7186V79.7056H93.4631V73.3962C93.4631 71.0136 92.7577 69.4085 90.3695 69.4085C88.62 69.4085 86.9094 70.8192 86.9094 73.8628V79.7056H85.2543V70.8192C85.2543 70.2082 85.2265 69.0863 85.1543 68.3143H86.7372L86.7427 68.3088Z" fill="black"/>
<path d="M103.182 80C99.6498 80 97.1172 77.4451 97.1172 74.0072C97.1172 70.5693 99.6498 68.0144 103.182 68.0144C106.715 68.0144 109.269 70.5748 109.269 74.0072C109.269 77.4396 106.737 80 103.182 80ZM103.182 69.4085C100.555 69.4085 98.8723 71.4523 98.8723 74.0072C98.8723 76.562 100.555 78.5837 103.182 78.5837C105.809 78.5837 107.514 76.562 107.514 74.0072C107.514 71.4523 105.831 69.4085 103.182 69.4085Z" fill="black"/>
<path d="M116.046 79.7057H114.219L109.57 68.3088H111.42L115.124 77.9506H115.174L118.901 68.3088H120.678L116.052 79.7057H116.046Z" fill="black"/>
<path d="M128.98 72.3522C128.98 70.3805 127.908 69.4085 125.936 69.4085C124.598 69.4085 123.354 69.9417 122.554 70.747L121.627 69.6529C122.554 68.7309 124.159 68.02 126.109 68.02C128.569 68.02 130.541 69.3863 130.541 72.1633V77.1564C130.541 78.0339 130.613 79.0781 130.735 79.7112H129.247C129.147 79.1558 129.074 78.4727 129.074 77.8617H129.03C127.986 79.3669 126.714 80 124.887 80C123.159 80 120.943 79.0781 120.943 76.5454C120.943 73.0409 124.815 72.7243 128.98 72.7243V72.3577V72.3522ZM128.491 74.0072C125.786 74.0072 122.648 74.3016 122.648 76.4677C122.648 78.1005 124.037 78.6393 125.331 78.6393C127.669 78.6393 128.986 76.8787 128.986 74.8626V74.0072H128.497H128.491Z" fill="black"/>
<path d="M173.136 40.8776C174.18 39.2225 176.529 37.3452 180.367 37.3452C186.326 37.3452 190.508 42.1383 190.508 48.3255C190.508 54.5127 186.593 59.4724 180.234 59.4724C177.312 59.4724 174.663 58.1672 173.308 56.0789H173.224V69.3197H167.998V37.9673H173.002V40.8831H173.136M179.189 41.6218C175.357 41.6218 173.047 45.1486 173.047 48.4144C173.047 51.6801 175.357 55.1181 179.189 55.1181C183.238 55.1181 185.199 51.5913 185.199 48.3255C185.199 45.0597 183.238 41.6163 179.189 41.6163V41.6218Z" fill="white"/>
</g>
<defs>
<clipPath id="clip0_29633_968">
<rect width="210.819" height="80" fill="white"/>
</clipPath>
</defs>
</svg>
